<svg id="Layer_2" data-name="Layer 2" xmlns="http://www.w3.org/2000/svg" viewBox="0 0 412.16 324.03"><defs><style>.cls-1{fill:#dfb500;}.cls-2{fill:#9a002c;}</style></defs><title>logo</title><path class="cls-1" d="M86.53,9.23a78,78,0,0,0-75,56.65l18.23-1,.67.48.68,5.26h.48A27.84,27.84,0,0,1,49.34,64.5q9.36,0,13.42,6.88h.29A27.29,27.29,0,0,1,81.7,64.5q7,0,11.25,3.92t4.2,10.7v37.16H73.1V83.7A6.22,6.22,0,0,0,72,79.79a3.36,3.36,0,0,0-2.75-1.44,6,6,0,0,0-4.45,2.2v35.73H40.74V83.7a6.22,6.22,0,0,0-1.11-3.91,3.36,3.36,0,0,0-2.75-1.44,6,6,0,0,0-4.45,2.2v35.73H14.11a78,78,0,0,0,72.42,49c1.29,0,2.56,0,3.84-.1a84,84,0,0,1,74.17-77.36c0-.19,0-.37,0-.56A78,78,0,0,0,86.53,9.23Z"/><path class="cls-2" d="M162.82,226.75V185.32H148.14l-.32-29.25h14.75V139.76l48.56-16.48-1,32.79h22.51v29.25H210.11v27.21a12.25,12.25,0,0,0,3,8.51c2,2.2,4.73,3.29,8.29,3.29s6.06,0,9.11-1.9l1.56,9.8c15.52-15.24,26.16-37.46,26.16-60.94a84,84,0,0,0-93.65-83.47,78,78,0,0,1-74.17,77.36c-.15,2-.25,4-.25,6.11a84,84,0,0,0,84,84c1.39,0,2.77,0,4.14-.1Q162.82,247.58,162.82,226.75Z"/><path class="cls-2" d="M217,254.78h-5.85q-.12-5.35-3.14-8.19c-2-1.9-4.85-2.84-8.55-2.84a10.57,10.57,0,0,0-7.18,2.48,7.8,7.8,0,0,0-2.86,6.12,6.67,6.67,0,0,0,1.9,4.9,11.28,11.28,0,0,0,5.59,2.78q13.86,3,17.25,6.39c2.27,2.24,3.4,5.64,3.4,10.23q0,7.46-4.67,11.93T200.27,293q-8,0-12.68-4.84t-5.37-13.88h6.19v.22q0,5.67,3.18,9a11.5,11.5,0,0,0,8.68,3.3,11.81,11.81,0,0,0,8.25-2.81,9.5,9.5,0,0,0,3.1-7.36q0-6.06-11.91-8.93c-1.65-.4-3-.72-3.9-1q-6.8-1.67-9.59-4.76t-2.79-8.71q0-7.2,4.42-11.58t11.64-4.38q8.19,0,12.71,4.51T217,254.78Z"/><path class="cls-2" d="M234,282.71l.09,30.84h-6V239.42h5.76l-.26,9.63q2.07-6,5.63-8.85a13.18,13.18,0,0,1,8.61-2.89q7.71,0,12.82,7.95t5.11,20.18q0,12.29-5,20t-13,7.71a13.28,13.28,0,0,1-8.21-2.73A17,17,0,0,1,234,282.71Zm12.6-39q-5.67,0-9.13,5.84T234,265.23q0,9.52,3.51,15.39t9.09,5.87q5.72,0,9.29-5.87t3.57-15.39q0-9.36-3.7-15.42T246.6,243.75Z"/><path class="cls-2" d="M308.39,257v20.4a69.11,69.11,0,0,0,.34,7.71,42.33,42.33,0,0,0,1.09,5.82h-6.41c-.2-1.33-.37-2.64-.5-3.92s-.22-2.55-.28-3.82a24,24,0,0,1-7,7.44,15.23,15.23,0,0,1-8.4,2.41,13.33,13.33,0,0,1-10.65-4.65q-4-4.65-4-12.18,0-7.08,3.77-10.68t13.59-5.28q7.49-1.25,9.92-3a5.8,5.8,0,0,0,2.42-5,7.78,7.78,0,0,0-3-6.3,11.92,11.92,0,0,0-7.83-2.47,10.2,10.2,0,0,0-7.06,2.41,12.92,12.92,0,0,0-3.68,7.28h-6.37c1-5.55,3-9.59,5.91-12.09s7.05-3.76,12.45-3.76,9.51,1.54,12,4.62S308.39,250,308.39,257Zm-5.76,3.79q-4,3.4-12.43,5.09a48.79,48.79,0,0,0-4.76,1.13,8.78,8.78,0,0,0-4.92,3.41,10.63,10.63,0,0,0-1.66,6.12A9.61,9.61,0,0,0,289,286.6q7.18,0,10.46-5.08t3.26-16.4c0-1.12,0-2,0-2.62S302.66,261.3,302.63,260.79Z"/><path class="cls-2" d="M355.32,255.38h-6.23a17.17,17.17,0,0,0-3.88-8.77,9.28,9.28,0,0,0-7.12-3.14q-5.89,0-9.5,5.82T325,264.8q0,10,3.59,15.9t9.62,5.9a8.94,8.94,0,0,0,7.14-3.41q2.85-3.4,3.68-9.52h6.32q-.87,9.25-5.48,14.31A15.66,15.66,0,0,1,337.66,293q-8.79,0-13.92-7.66t-5.14-20.69q0-12.66,5.22-20A16.49,16.49,0,0,1,338,237.31a15.66,15.66,0,0,1,11.8,4.7Q354.33,246.72,355.32,255.38Z"/><path class="cls-2" d="M401.26,267.12h-33.9q.17,9,4.2,14.13a13.09,13.09,0,0,0,10.87,5.14,12.7,12.7,0,0,0,7.57-2.28,14.33,14.33,0,0,0,4.94-6.6h6.32q-2,7.64-6.78,11.58a18.32,18.32,0,0,1-12.05,4,18.74,18.74,0,0,1-15.63-7.47Q361,278.12,361,265.44t5.59-20.4q5.58-7.72,14.72-7.73,9.61,0,14.83,7.08t5.22,20.19c0,.29,0,.7-.05,1.24S401.26,266.8,401.26,267.12Zm-6.75-6.44q-.48-8-4.07-12.39a11.7,11.7,0,0,0-9.57-4.44,11.49,11.49,0,0,0-9.18,4.49q-3.74,4.5-4.76,12.34Z"/></svg>